<svg width="0" height="0" class="hidden">
  <symbol enable-background="new 0 0 24 24" xmlns="http://www.w3.org/2000/svg" viewBox="0 0 24 24" id="menu">
    <path d="m5 0h-4c-.552 0-1 .448-1 1v4c0 .552.448 1 1 1h4c.552 0 1-.448 1-1v-4c0-.552-.448-1-1-1z"></path>
    <path d="m5 9h-4c-.552 0-1 .448-1 1v4c0 .552.448 1 1 1h4c.552 0 1-.448 1-1v-4c0-.552-.448-1-1-1z"></path>
    <path d="m5 18h-4c-.552 0-1 .448-1 1v4c0 .552.448 1 1 1h4c.552 0 1-.448 1-1v-4c0-.552-.448-1-1-1z"></path>
    <path d="m14 0h-4c-.552 0-1 .448-1 1v4c0 .552.448 1 1 1h4c.552 0 1-.448 1-1v-4c0-.552-.448-1-1-1z"></path>
    <path d="m14 9h-4c-.552 0-1 .448-1 1v4c0 .552.448 1 1 1h4c.552 0 1-.448 1-1v-4c0-.552-.448-1-1-1z"></path>
    <path d="m14 18h-4c-.552 0-1 .448-1 1v4c0 .552.448 1 1 1h4c.552 0 1-.448 1-1v-4c0-.552-.448-1-1-1z"></path>
    <path d="m23 0h-4c-.552 0-1 .448-1 1v4c0 .552.448 1 1 1h4c.552 0 1-.448 1-1v-4c0-.552-.448-1-1-1z"></path>
    <path d="m23 9h-4c-.552 0-1 .448-1 1v4c0 .552.448 1 1 1h4c.552 0 1-.448 1-1v-4c0-.552-.448-1-1-1z"></path>
    <path d="m23 18h-4c-.552 0-1 .448-1 1v4c0 .552.448 1 1 1h4c.552 0 1-.448 1-1v-4c0-.552-.448-1-1-1z"></path>
  </symbol>
    <symbol version="1.1" id="height" xmlns="http://www.w3.org/2000/svg" xmlns:xlink="http://www.w3.org/1999/xlink" x="0px" y="0px" xml:space="preserve" viewBox="0 0 512 512">
    <g>
      <g>
        <polygon points="401,0 111,0 111,40 254.716,40 152.469,142.246 180.754,170.53 235,116.284 235,396.104 180.754,341.858 
			152.469,370.142 254.328,472 111,472 111,512 401,512 401,472 255.672,472 357.531,370.142 329.246,341.858 275,396.104 
			275,116.284 329.246,170.53 357.531,142.246 255.284,40 401,40 		"></polygon>
      </g>
    </g>
    <g></g>
    <g></g>
    <g></g>
    <g></g>
    <g></g>
    <g></g>
    <g></g>
    <g></g>
    <g></g>
    <g></g>
    <g></g>
    <g></g>
    <g></g>
    <g></g>
    <g></g>
  </symbol>
  <symbol version="1.1" id="weight" xmlns="http://www.w3.org/2000/svg" xmlns:xlink="http://www.w3.org/1999/xlink" x="0px" y="0px" xml:space="preserve" viewBox="0 0 512 512">
    <g>
      <g>
        <path d="M497.046,403.011l-37.928-214.685c-7.851-44.435-46.3-76.686-91.422-76.686h-53.658
			c8.113-11.532,12.896-25.567,12.896-40.707C326.935,31.821,295.112,0,256,0s-70.934,31.821-70.934,70.934
			c0,15.14,4.783,29.175,12.896,40.707h-53.658c-45.122,0-83.571,32.251-91.422,76.686L14.954,403.011
			c-4.787,27.099,2.611,54.731,20.295,75.814C52.934,499.909,78.858,512,106.377,512h299.248c27.519,0,53.443-12.092,71.127-33.174
			C494.437,457.743,501.832,430.11,497.046,403.011z M256,30.227c22.446,0,40.707,18.261,40.707,40.707S278.445,111.641,256,111.641
			s-40.707-18.261-40.707-40.707S233.554,30.227,256,30.227z M453.593,459.4c-11.927,14.219-29.41,22.373-47.968,22.373H106.377
			c-18.558,0-36.042-8.154-47.968-22.373s-16.916-32.855-13.687-51.13l37.928-214.684c5.295-29.967,31.225-51.719,61.655-51.719
			h223.393c30.431,0,56.361,21.75,61.655,51.717l37.928,214.685C470.509,426.545,465.518,445.181,453.593,459.4z"></path>
      </g>
    </g>
    <g>
      <g>
        <path d="M206.303,311.819l37.873-39.135c5.805-5.997,5.647-15.565-0.351-21.37c-5.999-5.807-15.567-5.647-21.372,0.35
			l-42.355,43.767v-33.257c0-8.347-6.767-15.114-15.114-15.114s-15.114,6.767-15.114,15.114v99.291
			c0,8.347,6.767,15.114,15.114,15.114s15.114-6.767,15.114-15.114v-33.257l42.355,43.767c2.964,3.064,6.911,4.604,10.863,4.604
			c3.784,0,7.574-1.413,10.509-4.253c5.998-5.805,6.154-15.372,0.351-21.371L206.303,311.819z"></path>
      </g>
    </g>
    <g>
      <g>
        <path d="M347.02,300.978h-22.688c-8.347,0-15.114,6.767-15.114,15.114c0,8.347,6.767,15.114,15.114,15.114h7.325
			c-1.44,8.585-8.923,15.148-17.912,15.148c-10.014,0-18.161-8.147-18.161-18.161v-32.742c0-10.014,8.147-18.161,18.161-18.161
			c5.634,0,10.857,2.552,14.332,7.004c5.135,6.578,14.633,7.75,21.213,2.614c6.579-5.137,7.75-14.634,2.615-21.213
			c-9.242-11.84-23.151-18.631-38.159-18.631c-26.681,0-48.388,21.707-48.388,48.388v32.742c0,26.681,21.707,48.388,48.388,48.388
			s48.388-21.707,48.388-48.388v-12.1C362.134,307.745,355.367,300.978,347.02,300.978z"></path>
      </g>
    </g>
    <g></g>
    <g></g>
    <g></g>
    <g></g>
    <g></g>
    <g></g>
    <g></g>
    <g></g>
    <g></g>
    <g></g>
    <g></g>
    <g></g>
    <g></g>
    <g></g>
    <g></g>
  </symbol>
    <symbol xmlns="http://www.w3.org/2000/svg" viewBox="-21 0 426 426.66667" id="sort">
    <path d="m90.996094 426.667969c-8.832032 0-16-7.167969-16-16v-394.667969c0-8.832031 7.167968-16 16-16 8.832031 0 16 7.167969 16 16v394.667969c0 8.832031-7.167969 16-16 16zm0 0"></path>
    <path d="m90.996094 426.667969c-4.097656 0-8.195313-1.558594-11.308594-4.695313l-74.667969-74.664062c-6.25-6.253906-6.25-16.386719 0-22.636719 6.253907-6.25 16.386719-6.25 22.636719 0l63.359375 63.359375 63.359375-63.359375c6.25-6.25 16.386719-6.25 22.636719 0s6.25 16.382813 0 22.636719l-74.667969 74.664062c-3.15625 3.136719-7.253906 4.695313-11.347656 4.695313zm0 0"></path>
    <path d="m330.996094 170.667969c-8.832032 0-16-7.167969-16-16v-122.667969h-21.335938c-8.832031 0-16-7.167969-16-16s7.167969-16 16-16h37.335938c8.832031 0 16 7.167969 16 16v138.667969c0 8.832031-7.167969 16-16 16zm0 0"></path>
    <path d="m346.996094 426.667969h-53.335938c-8.832031 0-16-7.167969-16-16s7.167969-16 16-16h53.335938c2.941406 0 5.332031-2.390625 5.332031-5.335938v-26.664062h-37.332031c-20.589844 0-37.335938-16.746094-37.335938-37.335938v-32c0-20.585937 16.746094-37.332031 37.335938-37.332031h32c20.585937 0 37.332031 16.746094 37.332031 37.332031v96c0 20.589844-16.746094 37.335938-37.332031 37.335938zm-32-138.667969c-2.945313 0-5.335938 2.390625-5.335938 5.332031v32c0 2.945313 2.390625 5.335938 5.335938 5.335938h37.332031v-37.335938c0-2.941406-2.390625-5.332031-5.332031-5.332031zm0 0"></path>
    <path d="m368.328125 170.667969h-74.667969c-8.832031 0-16-7.167969-16-16s7.167969-16 16-16h74.667969c8.832031 0 16 7.167969 16 16s-7.167969 16-16 16zm0 0"></path>
  </symbol>
  <symbol version="1.1" id="boxing-fighter" xmlns="http://www.w3.org/2000/svg" xmlns:xlink="http://www.w3.org/1999/xlink" x="0px" y="0px" xml:space="preserve" viewBox="0 0 420.001 420.001">
    <g>
      <g id="Layer_1_55_">
        <g>
          <path d="M199.135,84.708c5.119,3.45,10.916,5.83,16.967,7.011l0.063,0.015c14.992,2.911,30.76-1.917,41.572-12.7
				c10.967-10.95,15.783-27.132,12.594-42.295c-3.117-14.772-13.564-27.416-27.51-33.217c-14.264-5.936-30.896-4.291-43.713,4.344
				s-20.578,23.438-20.436,38.895C178.815,61.861,186.621,76.285,199.135,84.708z"></path>
          <path d="M394.613,93.812c-2.447-0.666-4.98-0.999-7.514-0.999c-5.953,0-11.662,0.038-17.211,2.589
				c-0.902,0.414-1.781,0.876-2.633,1.382c-0.66,0.391-1.082,0.726-1.629,0.878c-3.158-0.006-8.096-0.016-9.52,0.004
				c-4.016,0-7.961,1.389-11.086,3.91c-0.617,0.495-0.971,1.273-1.77,1.224c-1.238-0.078-2.479-0.155-3.719-0.232
				c-14.506-0.907-29.01-1.814-43.518-2.721c-19.926-1.244-39.854-2.489-59.777-3.734c-12.209-0.763-24.393-2.289-36.619-2.289
				c-18.303,0-26.395,5.61-29.518,7.453c-9.906,5.854-17.162,14.901-21.305,25.575c-5.486,14.136-10.975,28.273-16.459,42.413
				c-5.547,14.285-12.957,28.271-18.504,42.556c-0.119,0.315-0.242,0.63-0.363,0.941c-0.646,1.672-1.172,3.389-1.672,5.108
				c-2.67,9.192-0.232,10.276-1.934,15.165c-1.711,5.55-1.008,3.262-2.719,8.813c-5.531,17.945-11.09,35.88-16.693,53.803
				c-1.256,4.023-3.762,12.076-3.762,12.076s-2,2.11-2.594,2.711c-1.809,1.829-3.637,3.644-5.473,5.444
				c-7.123,6.983-14.361,13.85-21.619,20.689c-12.813,12.073-25.738,24.02-38.67,35.963c-2.324,2.145-4.672,4.266-6.971,6.435
				c-5.354,4.98-7.881,12.516-6.648,19.719c2.547,14.893,19.824,22.838,32.781,15.102c2.908-1.736,5.574-3.99,8.289-6
				c6.539-4.837,13.074-9.675,19.611-14.513c15.156-11.281,30.289-22.607,45.195-34.215c5.691-4.431,11.434-8.833,16.799-13.656
				c7.819-7.029,14.73-23.613,17.342-29.528c4.207-9.533,8.311-19.116,12.461-28.675c15.523,9.883,62.424,40.387,62.424,40.387
				s8.52,25.963,11.338,35.318c2.588,8.592,5.09,17.209,7.59,25.827c1.645,5.679,2.922,11.597,4.982,17.14
				c5.248,14.115,23.641,18.761,34.963,8.826c5.207-4.568,8-11.488,7.391-18.393c-0.537-6.062-1.77-12.115-2.691-18.128
				c-2.816-18.402-5.656-36.813-9.166-55.099c-1.566-8.164-2.953-16.695-6.086-24.437c-1.578-3.896-2.852-7.062-20.775-22.104
				l-37.932-31.143l17.975-46.316c2.516,2.4,5.027,4.803,7.537,7.204c4.971,4.756,11.881,6.151,18.418,4.333
				c4.154-1.157,8.309-2.313,12.463-3.473c2.404-0.668,4.777-0.113,7.252-0.6c1.951-0.386,3.883-0.895,5.818-1.347
				c0.537-0.126,2.695-0.672,3.951-0.993c0.623,0.214,2.736,0.917,4.734,1.319c4.084,0.822,8.254,0.675,12.305-0.269
				c5.609-1.307,10.953-2.633,15.633-6.226c11.586-8.904,14.457-25.738,6.439-37.971c-3.814-5.819-9.777-10.096-16.506-11.861
				c-6.014-1.58-11.664-0.625-17.574,0.751c-3.152,0.734-6.172,1.733-8.984,3.371c-1.664,0.971-3.227,2.111-4.656,3.396
				c-0.647,0.583-1.267,1.2-1.857,1.841c-2.277,0.473-7.254,1.639-8.664,1.968c-1.07,0.248-2.123,0.525-3.146,0.932
				c-0.941,0.375-1.152,0.907-1.719,0.14c-3.867-5.248-7.738-10.497-11.607-15.746c12.488-0.78,24.973-1.561,37.455-2.341
				c17.736-1.108,35.473-2.217,53.209-3.324c1.787-0.113,3.574-0.225,5.363-0.336c0.941-0.06,1.15,0.568,1.951,1.211
				c3.125,2.523,7.07,3.91,11.086,3.91l9.744-0.003c0.324,0.219,0.648,0.436,0.98,0.64c0.984,0.608,2.006,1.145,3.057,1.629
				c5.525,2.539,11.271,2.635,17.211,2.589c14.074,0,26.375-10.709,28.25-24.673C417.231,111.165,408.246,97.525,394.613,93.812z"></path>
        </g>
      </g>
    </g>
    <g></g>
    <g></g>
    <g></g>
    <g></g>
    <g></g>
    <g></g>
    <g></g>
    <g></g>
    <g></g>
    <g></g>
    <g></g>
    <g></g>
    <g></g>
    <g></g>
    <g></g>
  </symbol>
  <symbol xmlns="http://www.w3.org/2000/svg" viewBox="0 0 192 192" id="idea">
    <g id="_27-creativity">
      <path d="m96 0a64 64 0 0 0 -32 119.427v8.573a8 8 0 0 0 -8 8v32a24.028 24.028 0 0 0 24 24h32a24.028 24.028 0 0 0 24-24v-32a8 8 0 0 0 -8-8v-8.573a64 64 0 0 0 -32-119.427zm24 144v8h-48v-8zm-8 32h-32a8.009 8.009 0 0 1 -8-8h48a8.009 8.009 0 0 1 -8 8zm4.567-68.622a8 8 0 0 0 -4.567 7.222v13.4h-8v-35.719l20.438-13.625a8 8 0 0 0 3.562-6.656v-16h-16v11.719l-16 10.666-16-10.666v-11.719h-16v16a8 8 0 0 0 3.563 6.656l20.437 13.625v35.719h-8v-13.4a8 8 0 0 0 -4.567-7.226 48 48 0 1 1 41.134 0z"></path>
      <circle cx="120" cy="40" r="8"></circle>
      <path d="m176 56h16v16h-16z"></path>
      <path d="m164.686 24h22.627v16h-22.627z" transform="matrix(.707 -.707 .707 .707 28.917 133.817)"></path>
      <path d="m168 84.686h16v22.627h-16z" transform="matrix(.707 -.707 .707 .707 -16.333 152.569)"></path>
      <path d="m0 56h16v16h-16z"></path>
      <path d="m8 20.686h16v22.627h-16z" transform="matrix(.707 -.707 .707 .707 -17.941 20.686)"></path>
      <path d="m4.686 88h22.627v16h-22.627z" transform="matrix(.707 -.707 .707 .707 -63.194 39.428)"></path>
    </g>
  </symbol>
  <symbol id="battle" enable-background="new 0 0 512.021 512.021" xmlns="http://www.w3.org/2000/svg" viewBox="0 0 512.021 512.021">
    <g>
      <path d="m422.78 359.156c1.362-9.456.942-19.206-1.416-28.696-4.103-16.513.811-34.234 12.824-46.248 0 0 .005-.007.005-.008-.014-.014-.025-.026-.038-.039l.004.004c-.015-.016-.035-.036-.061-.062l.005.005c-.007-.007-.088-.089-.095-.097l.016.016c-.021-.021-.044-.045-.07-.071.007.007.014.014.021.022-.025-.025-5.438-5.534-20.807-21.175l-43.37 43.367-50.154-50.154 157.977-157.973c22.177-22.177 34.39-51.662 34.39-83.025v-15h-15c-31.363 0-60.848 12.213-83.025 34.39l-157.975 157.975-157.976-157.975c-22.177-22.177-51.662-34.391-83.025-34.391h-15v15c0 31.363 12.213 60.849 34.39 83.026l157.975 157.975-50.154 50.154-43.377-43.374c-.022.022-.04.041-.059.06.023-.023.041-.042.052-.054-.018.018-.209.213-.256.261.027-.028.059-.06.09-.092-.056.057-.095.097-.122.124.006-.006.012-.012.018-.018-.011.011-.023.023-.035.036.004-.004.008-.008.012-.012-.047.048-.049.049-.025.025-1.107 1.128-5.534 5.636-20.695 21.075 12.013 12.013 16.933 29.74 12.83 46.254-2.358 9.49-2.777 19.24-1.415 28.696l-76.049 76.045c-17.587 17.584-17.591 46.052 0 63.64 17.544 17.544 46.093 17.545 63.639 0l76.046-76.05c9.456 1.362 19.206.942 28.696-1.416 16.512-4.103 34.234.811 46.247 12.824l.202.198c-.001.001-.002.002-.003.003l.021-.021c-.001.001-.002.002-.003.003.006-.006.014-.015.024-.024-.001.001-.002.002-.003.003.053-.054.099-.101.136-.138-.027.028-.054.055-.079.08.027-.027.235-.239.238-.242-.002.002-.005.005-.008.008l.01-.01c-.001.001-.001.001-.002.002.004-.004 5.592-5.694 20.687-21.067l-43.182-43.182 50.154-50.154 50.154 50.154-43.182 43.182c-.007-.007-.008-.008 0 0 0 0 .125.127.17.173-.026-.026-.051-.052-.074-.076.028.028.062.063.104.105-.004-.005-.009-.009-.013-.014.029.029.053.054.073.074l.03.03c-.003-.003-.006-.006-.009-.009.013.013.023.024.032.032-.004-.004-.009-.009-.014-.014 1.065 1.084 5.446 5.543 20.728 21.095l.195-.191c12.012-12.012 29.729-16.927 46.247-12.824 9.49 2.358 19.24 2.778 28.696 1.416l76.046 76.05c17.545 17.544 46.092 17.545 63.638 0 17.587-17.585 17.591-46.052 0-63.64zm-159.792 53.843c.01.01.028.028.054.055-.023-.024-.042-.043-.054-.055zm-207.375-336.165c-12.538-12.538-20.798-28.213-24.047-45.257 17.043 3.249 32.718 11.509 45.256 24.047l157.975 157.976-21.209 21.209zm.011 400.782-.207.208c-5.863 5.651-15.23 5.586-21.014-.197-5.826-5.826-5.826-15.165-.205-21.003l66.692-66.692c2.746 4.177 5.92 8.104 9.513 11.696 3.592 3.592 7.519 6.767 11.696 9.513zm118.715-85.356c-15.485 3.847-31.458-.581-42.721-11.845-11.265-11.265-15.693-27.236-11.846-42.721.804-3.235 1.389-6.5 1.769-9.773l62.57 62.57c-3.273.381-6.537.966-9.772 1.769zm10.304-43.663-21.209-21.209 271.765-271.763c12.538-12.538 28.213-20.798 45.256-24.047-3.249 17.043-11.509 32.718-24.047 45.256zm92.581-50.154 21.209-21.209 50.154 50.154-21.209 21.209zm60.459 93.817c-3.235-.804-6.5-1.389-9.773-1.769l62.57-62.57c.38 3.273.966 6.537 1.769 9.772 3.847 15.486-.581 31.457-11.846 42.722s-27.236 15.693-42.72 11.845zm139.934 85.367c-5.78 5.78-15.142 5.849-21.006.203l-66.689-66.689c4.177-2.746 8.104-5.921 11.696-9.513s6.767-7.519 9.513-11.696l66.686 66.686c5.657 5.871 5.601 15.209-.2 21.009z"></path>
      <path d="m98.521 263.131c.004-.004.009-.009.013-.013-.005.005-.009.009-.013.013z"></path>
      <path d="m98.569 263.083c.005-.005.009-.009.013-.013-.004.004-.009.008-.013.013z"></path>
      <path d="m98.845 262.801c.006-.006.007-.007 0 0z"></path>
      <path d="m98.838 262.808c.003-.003.005-.005.007-.007-.002.002-.004.004-.007.007z"></path>
      <path d="m296.319 31.022h84.853v30h-84.853z" transform="matrix(.707 -.707 .707 .707 66.673 253.007)"></path>
      <path d="m158.276 3.595h30v84.853h-30z" transform="matrix(.707 -.707 .707 .707 18.209 136.004)"></path>
      <path d="m241.011.021h30v91h-30z"></path>
    </g>
  </symbol>
</svg>